<svg width="256" height="256" viewBox="0 0 256 256" fill="none" xmlns="http://www.w3.org/2000/svg">
<g filter="url(#filter0_d_319_133)">
<mask id="mask0_319_133" style="mask-type:alpha" maskUnits="userSpaceOnUse" x="0" y="0" width="256" height="256">
<rect width="256" height="256" fill="#D9D9D9"/>
</mask>
<g mask="url(#mask0_319_133)">
<path d="M100.8 167.467L197.6 70.6667C199.212 69.0667 201.126 68.2667 203.342 68.2667C205.558 68.2667 207.467 69.0714 209.067 70.6808C210.667 72.2901 211.467 74.2012 211.467 76.4141C211.467 78.6269 210.667 80.5334 209.067 82.1334L106.4 184.8C104.8 186.4 102.933 187.2 100.8 187.2C98.6666 187.2 96.7999 186.4 95.1999 184.8L46.6666 136.267C45.0666 134.655 44.311 132.741 44.3999 130.525C44.4888 128.308 45.338 126.4 46.9474 124.8C48.5566 123.2 50.4678 122.4 52.6807 122.4C54.8935 122.4 56.7999 123.2 58.3999 124.8L100.8 167.467Z" fill="white"/>
</g>
</g>
<defs>
<filter id="filter0_d_319_133" x="36.3929" y="68.2667" width="191.074" height="145.933" filterUnits="userSpaceOnUse" color-interpolation-filters="sRGB">
<feFlood flood-opacity="0" result="BackgroundImageFix"/>
<feColorMatrix in="SourceAlpha" type="matrix" values="0 0 0 0 0 0 0 0 0 0 0 0 0 0 0 0 0 0 127 0" result="hardAlpha"/>
<feOffset dx="4" dy="15"/>
<feGaussianBlur stdDeviation="6"/>
<feComposite in2="hardAlpha" operator="out"/>
<feColorMatrix type="matrix" values="0 0 0 0 0 0 0 0 0 0 0 0 0 0 0 0 0 0 0.4 0"/>
<feBlend mode="normal" in2="BackgroundImageFix" result="effect1_dropShadow_319_133"/>
<feBlend mode="normal" in="SourceGraphic" in2="effect1_dropShadow_319_133" result="shape"/>
</filter>
</defs>
</svg>
