<svg width="512" height="512" viewBox="0 0 512 512" fill="none" xmlns="http://www.w3.org/2000/svg">
<rect width="512" height="512" rx="256" fill="#E8DEF8"/>
<g filter="url(#filter0_d_320_156)">
<mask id="mask0_320_156" style="mask-type:alpha" maskUnits="userSpaceOnUse" x="64" y="64" width="384" height="384">
<rect x="64" y="64" width="384" height="384" fill="#D9D9D9"/>
</mask>
<g mask="url(#mask0_320_156)">
<path d="M215.2 315.2L360.4 170C362.818 167.6 365.689 166.4 369.013 166.4C372.338 166.4 375.2 167.607 377.6 170.021C380 172.435 381.2 175.302 381.2 178.621C381.2 181.94 380 184.8 377.6 187.2L223.6 341.2C221.2 343.6 218.4 344.8 215.2 344.8C212 344.8 209.2 343.6 206.8 341.2L134 268.4C131.6 265.982 130.467 263.111 130.6 259.787C130.733 256.462 132.007 253.6 134.421 251.2C136.835 248.8 139.702 247.6 143.021 247.6C146.34 247.6 149.2 248.8 151.6 251.2L215.2 315.2Z" fill="white"/>
</g>
</g>
<defs>
<filter id="filter0_d_320_156" x="122.589" y="166.4" width="274.611" height="205.4" filterUnits="userSpaceOnUse" color-interpolation-filters="sRGB">
<feFlood flood-opacity="0" result="BackgroundImageFix"/>
<feColorMatrix in="SourceAlpha" type="matrix" values="0 0 0 0 0 0 0 0 0 0 0 0 0 0 0 0 0 0 127 0" result="hardAlpha"/>
<feOffset dx="4" dy="15"/>
<feGaussianBlur stdDeviation="6"/>
<feComposite in2="hardAlpha" operator="out"/>
<feColorMatrix type="matrix" values="0 0 0 0 0 0 0 0 0 0 0 0 0 0 0 0 0 0 0.4 0"/>
<feBlend mode="normal" in2="BackgroundImageFix" result="effect1_dropShadow_320_156"/>
<feBlend mode="normal" in="SourceGraphic" in2="effect1_dropShadow_320_156" result="shape"/>
</filter>
</defs>
</svg>
